<?xml version="1.0" standalone="no"?>
<!DOCTYPE svg PUBLIC "-//W3C//DTD SVG 20010904//EN"
 "http://www.w3.org/TR/2001/REC-SVG-20010904/DTD/svg10.dtd">
<svg version="1.0" xmlns="http://www.w3.org/2000/svg"
 width="680.000000pt" height="680.000000pt" viewBox="0 0 680.000000 680.000000"
 preserveAspectRatio="xMidYMid meet">
<metadata>
Created by potrace 1.11, written by Peter Selinger 2001-2013
</metadata>
<g transform="translate(0.000000,680.000000) scale(0.100000,-0.100000)"
fill="#000000" stroke="none">
<path d="M3150 6789 c-69 -6 -123 -12 -240 -25 -25 -3 -62 -9 -82 -15 -20 -5
-40 -9 -45 -8 -4 1 -11 0 -15 -1 -10 -3 -15 -4 -58 -13 -19 -4 -46 -10 -60
-13 -14 -3 -36 -7 -49 -10 -14 -3 -28 -7 -31 -9 -4 -2 -20 -6 -36 -9 -40 -7
-292 -89 -374 -122 -222 -88 -424 -194 -644 -338 -112 -74 -278 -201 -284
-217 -2 -5 -8 -9 -14 -9 -5 0 -39 -29 -76 -65 -36 -36 -68 -65 -70 -65 -16 0
-240 -243 -327 -355 -11 -14 -25 -31 -31 -38 -6 -7 -36 -49 -67 -92 -31 -44
-61 -85 -66 -91 -40 -49 -274 -468 -286 -514 -4 -15 -18 -48 -29 -70 -17 -32
-51 -133 -48 -142 1 -5 -3 -8 -10 -8 -6 0 -9 -3 -6 -6 3 -3 -4 -32 -17 -65
-13 -32 -21 -59 -19 -59 3 0 0 -8 -5 -18 -9 -17 -57 -191 -67 -242 -3 -14 -9
-40 -15 -57 -6 -18 -12 -45 -14 -60 -2 -16 -9 -59 -15 -96 -6 -37 -13 -89 -15
-115 -3 -26 -7 -56 -10 -67 -23 -109 -23 -599 0 -750 2 -16 7 -50 10 -75 6
-44 8 -57 20 -143 4 -23 11 -62 17 -87 5 -25 12 -56 14 -68 5 -26 27 -109 43
-160 5 -18 10 -35 10 -37 1 -3 1 -6 2 -7 0 -2 2 -11 4 -21 2 -10 7 -26 11 -35
4 -9 8 -24 10 -33 12 -58 171 -452 196 -485 4 -6 19 -32 33 -58 53 -99 88
-161 95 -166 4 -3 10 -15 14 -27 4 -13 12 -23 17 -23 5 0 9 -5 9 -11 0 -16 62
-109 72 -109 5 0 6 -5 3 -10 -3 -6 -1 -10 4 -10 6 0 11 -4 11 -10 0 -5 6 -18
14 -27 8 -10 38 -49 67 -88 28 -38 57 -74 63 -80 6 -5 29 -32 51 -60 38 -49
150 -170 191 -207 11 -10 57 -53 102 -96 45 -42 87 -82 94 -87 7 -6 47 -37 88
-71 41 -33 111 -84 155 -114 44 -30 86 -61 93 -67 7 -7 17 -13 22 -13 5 0 15
-6 22 -13 31 -30 317 -185 433 -234 92 -39 110 -46 115 -47 3 -1 10 -4 15 -8
14 -8 246 -91 290 -102 6 -2 17 -6 25 -9 13 -4 46 -13 120 -31 30 -8 176 -37
200 -41 25 -4 53 -8 125 -20 22 -3 51 -8 65 -10 133 -21 611 -28 765 -11 44 5
91 10 105 11 14 1 52 7 85 13 33 6 76 13 95 16 19 3 46 8 60 11 14 3 40 8 59
11 19 3 45 10 58 15 13 5 23 6 23 4 0 -2 11 0 25 5 14 5 36 12 48 14 26 5 291
92 322 106 11 5 56 23 100 41 76 31 389 185 410 202 6 4 44 29 86 55 43 27 93
60 112 75 20 15 40 27 46 27 6 0 11 4 11 8 0 4 12 15 28 24 24 15 59 43 101
80 8 7 22 18 32 23 51 29 349 318 424 410 22 27 47 56 55 65 9 9 31 37 49 63
19 26 38 47 43 47 4 0 8 5 8 10 0 6 11 23 25 38 14 15 25 32 25 39 0 6 4 13 9
15 15 5 126 184 235 380 38 68 141 297 145 321 0 4 7 20 15 35 15 30 84 234
91 270 2 12 7 27 10 32 3 5 8 18 10 27 2 10 8 38 14 63 15 57 20 79 26 110 2
14 10 49 16 79 6 30 12 64 14 75 11 81 17 124 21 146 25 144 25 704 -1 840 -2
14 -7 41 -9 60 -21 157 -48 286 -96 449 -12 40 -23 78 -24 85 -8 37 -20 72
-27 82 -5 6 -10 19 -12 30 -2 10 -9 32 -15 47 -7 16 -12 30 -12 32 0 2 -5 16
-12 32 -6 15 -12 30 -13 33 -1 3 -11 27 -23 53 -12 27 -22 50 -22 53 0 16
-176 353 -190 364 -4 3 -13 16 -20 29 -33 63 -222 335 -250 361 -3 3 -28 32
-55 65 -88 105 -169 189 -295 305 -51 47 -97 90 -104 96 -35 33 -247 194 -256
194 -5 0 -10 5 -10 11 0 5 -4 8 -9 5 -5 -4 -11 -3 -13 2 -3 8 -167 115 -233
152 -74 42 -269 137 -335 164 -36 15 -74 31 -85 35 -11 5 -36 14 -55 21 -19 7
-44 16 -55 20 -42 18 -209 70 -225 70 -9 0 -21 5 -28 12 -7 7 -12 9 -12 6 0
-4 -21 -1 -47 7 -27 8 -60 16 -75 19 -16 4 -38 8 -50 11 -55 12 -75 16 -108
20 -19 3 -46 8 -60 11 -14 3 -38 7 -55 9 -43 5 -127 14 -187 21 -75 9 -459 11
-548 3z"/>
</g>
</svg>
